<?xml version="1.0" encoding="UTF-8" standalone="no"?>
<!DOCTYPE svg PUBLIC "-//W3C//DTD SVG 1.1//EN" "http://www.w3.org/Graphics/SVG/1.1/DTD/svg11.dtd">
<svg xmlns="http://www.w3.org/2000/svg" version="1.1" viewBox="0.00 0.00 500.00 500.00">
<g stroke-width="2.00" fill="none" stroke-linecap="butt">
<path stroke="#586165" vector-effect="non-scaling-stroke" d="
  M 6.53 129.84
  Q 7.82 122.45 8.04 115.01
  Q 8.15 111.16 9.21 108.64
  C 10.89 104.64 12.86 101.18 13.61 96.60
  Q 14.17 93.19 15.79 90.22
  C 18.07 86.05 19.78 81.64 22.14 77.45
  Q 24.32 73.59 26.23 69.35
  Q 27.78 65.90 30.45 62.10
  Q 33.39 57.92 35.33 53.25
  Q 36.88 49.53 40.11 46.42
  C 42.98 43.65 44.81 40.14 47.85 37.52
  Q 52.24 33.73 56.49 29.70
  C 59.30 27.03 63.84 25.78 67.34 23.61
  Q 72.45 20.45 78.99 18.51
  Q 81.60 17.73 86.62 17.41
  Q 90.50 17.16 94.31 16.42"
/>
<path stroke="#586165" vector-effect="non-scaling-stroke" d="
  M 232.33 100.04
  Q 239.33 103.61 244.00 103.58
  C 248.39 103.55 252.50 103.52 256.96 102.81
  Q 264.22 101.65 266.51 101.61
  Q 274.49 101.47 281.55 98.83
  Q 284.24 97.83 286.55 97.15
  Q 289.05 96.41 291.37 95.46
  C 293.65 94.53 296.23 94.07 298.32 92.82
  C 300.44 91.56 302.27 90.26 304.55 89.15
  C 309.78 86.59 316.03 83.11 320.19 78.73
  C 322.72 76.07 326.07 74.75 328.07 71.52
  Q 330.24 68.01 332.97 65.26
  Q 335.00 63.20 336.39 60.41
  Q 338.52 56.15 340.93 52.15
  C 342.50 49.55 344.96 47.81 346.55 45.32
  Q 349.95 39.97 354.71 35.92
  Q 359.17 32.13 363.39 28.36
  C 365.73 26.27 368.39 25.26 370.93 23.55
  C 377.43 19.17 385.68 16.91 393.50 16.23
  A 0.38 0.38 0.0 0 0 393.80 15.66
  L 393.50 15.15"
/>
<path stroke="#586165" vector-effect="non-scaling-stroke" d="
  M 9.76 101.83
  Q 12.05 99.77 11.65 96.04"
/>
<path stroke="#586165" vector-effect="non-scaling-stroke" d="
  M 16.66 82.22
  L 16.51 83.62
  Q 16.43 84.46 16.78 83.69
  Q 17.46 82.23 17.48 80.45"
/>
<path stroke="#586165" vector-effect="non-scaling-stroke" d="
  M 21.00 73.74
  Q 22.90 72.91 22.71 70.50"
/>
<path stroke="#586165" vector-effect="non-scaling-stroke" d="
  M 119.84 174.63
  Q 119.45 174.67 119.41 174.81
  A 0.43 0.42 -65.9 0 0 119.59 175.30
  Q 127.39 180.10 133.58 185.43
  Q 135.66 187.22 137.51 189.44
  Q 139.08 191.33 141.37 193.81
  Q 145.08 197.83 148.47 202.36
  C 149.06 203.16 149.11 203.86 149.61 204.64
  Q 152.20 208.68 153.67 211.81
  Q 154.76 214.12 155.73 217.15
  Q 156.64 220.02 157.53 222.73
  Q 157.91 223.88 158.17 225.22
  Q 160.67 237.94 163.04 251.18"
/>
<path stroke="#747a7d" vector-effect="non-scaling-stroke" d="
  M 162.81 276.43
  Q 161.59 286.39 160.73 296.23
  Q 160.50 298.82 159.90 301.20
  Q 159.26 303.73 158.98 306.22
  Q 158.81 307.73 158.43 309.25
  Q 158.07 310.71 157.84 312.32
  Q 156.60 321.16 154.58 330.20
  C 153.47 335.14 150.89 339.60 149.58 344.31
  Q 147.95 350.19 146.45 356.22
  Q 146.04 357.86 143.63 362.50
  Q 142.03 365.57 140.95 368.78
  Q 139.02 374.50 136.60 380.14
  C 135.28 383.21 133.27 385.51 132.12 388.70
  Q 129.33 396.45 128.24 403.66
  C 126.61 414.49 128.83 425.32 135.07 434.34
  C 140.02 441.49 145.86 446.90 153.88 450.21
  C 157.71 451.80 162.93 452.77 166.55 453.04
  Q 179.03 453.98 189.73 448.07
  Q 192.21 446.70 194.45 444.72
  C 197.19 442.30 200.10 440.05 202.97 437.79
  Q 204.75 436.37 206.22 434.43
  Q 207.74 432.42 209.58 431.08
  Q 212.37 429.07 214.55 427.09
  C 216.61 425.22 219.18 422.62 221.94 421.85
  C 224.91 421.03 227.16 419.31 230.32 418.95
  Q 239.02 417.96 247.44 417.53
  Q 257.25 417.03 266.44 419.82
  Q 272.29 421.59 278.55 425.99
  Q 285.41 430.81 289.30 435.31
  C 292.03 438.48 295.23 440.87 298.09 443.78
  Q 301.04 446.79 304.89 448.63
  Q 314.38 453.18 324.92 453.25
  C 328.66 453.27 332.93 452.39 336.65 451.51
  C 341.62 450.35 346.48 447.61 350.46 443.73
  C 353.59 440.69 356.75 438.35 357.81 433.80
  A 1.65 1.64 77.4 0 1 358.40 432.87
  Q 360.08 431.59 361.13 429.84
  Q 368.45 417.53 365.62 402.76
  Q 364.08 394.73 361.03 388.71
  C 357.04 380.81 353.59 373.07 350.24 365.37
  Q 348.49 361.31 347.02 356.39
  Q 345.61 351.64 343.86 347.71
  Q 342.14 343.86 341.15 339.71
  C 340.52 337.06 339.64 334.74 339.08 332.23
  Q 335.57 316.75 332.39 301.36
  C 331.80 298.49 331.69 295.65 331.18 292.73
  Q 330.63 289.62 330.57 286.57
  Q 330.30 272.50 330.11 258.74
  C 330.04 253.43 330.79 248.18 331.37 242.79
  Q 331.81 238.77 332.88 235.73
  Q 334.15 232.12 334.44 228.65
  C 334.83 224.05 336.89 219.79 338.00 215.28
  C 338.78 212.12 340.27 209.50 341.85 206.68
  C 343.88 203.04 346.63 200.23 348.59 196.71
  C 350.51 193.26 353.83 190.55 356.42 187.55
  C 359.67 183.79 364.22 180.45 368.60 178.10
  Q 370.77 176.94 372.83 175.79
  C 376.19 173.89 379.93 172.86 383.62 171.95
  C 385.92 171.39 388.19 171.74 390.60 171.35
  Q 395.84 170.48 401.58 171.43
  Q 404.49 171.91 407.43 172.26
  Q 414.27 173.05 418.50 173.36
  Q 426.88 173.98 435.24 171.26
  Q 440.53 169.54 443.11 166.85
  Q 444.71 165.16 446.78 164.03
  C 451.61 161.39 454.16 156.74 457.16 152.30
  Q 458.76 149.93 459.27 147.51
  C 460.06 143.77 461.84 140.55 462.22 136.80
  C 462.65 132.54 463.91 128.70 463.29 124.29
  Q 462.68 119.99 462.16 115.81
  C 461.87 113.43 460.85 111.42 460.31 109.12
  Q 459.76 106.73 458.65 104.33
  Q 456.18 98.93 453.55 94.10
  C 452.30 91.79 451.50 88.88 450.37 86.90
  Q 445.15 77.73 441.21 68.29
  C 440.17 65.78 438.59 63.25 436.92 61.10
  Q 434.40 57.87 431.63 54.44
  C 426.66 48.27 418.35 44.19 411.00 41.61
  C 403.75 39.06 396.47 39.31 388.84 41.09
  Q 384.91 42.01 379.93 44.59
  Q 374.90 47.20 371.40 49.66
  Q 369.02 51.33 367.46 53.51
  Q 362.90 59.90 358.22 66.60
  C 355.69 70.24 354.80 74.13 351.66 77.44
  C 349.54 79.66 348.31 82.49 346.08 84.71
  Q 341.60 89.18 337.62 93.65
  C 334.64 96.99 330.80 100.41 326.99 102.71
  Q 321.80 105.86 316.55 109.40
  C 312.81 111.93 308.89 113.56 304.74 115.32
  Q 301.26 116.78 297.98 118.32
  Q 292.19 121.03 286.62 122.03
  Q 282.96 122.68 279.35 123.60
  Q 275.86 124.49 272.02 124.80
  C 268.40 125.09 265.36 125.67 262.01 126.08
  C 257.25 126.65 252.39 126.38 247.49 126.25
  Q 245.44 126.20 240.53 126.43
  Q 232.43 126.80 223.75 124.90
  C 222.37 124.60 220.59 124.72 219.09 124.41
  Q 211.91 122.91 203.50 121.23
  Q 198.96 120.32 188.59 115.09
  Q 186.57 114.08 184.31 113.50
  C 181.43 112.75 179.31 110.76 176.95 109.02
  Q 175.46 107.93 173.63 107.02
  Q 165.71 103.05 161.31 99.14
  Q 153.75 92.43 144.34 82.00
  C 140.22 77.43 137.69 70.49 133.70 64.96
  Q 131.43 61.80 129.35 58.57
  Q 125.01 51.81 117.70 47.04
  Q 114.31 44.82 106.62 41.59
  C 104.63 40.75 102.54 40.75 100.47 40.24
  C 93.72 38.58 85.53 40.41 78.86 43.20
  Q 71.20 46.41 66.77 49.82
  Q 60.03 55.02 57.76 58.83
  Q 54.12 64.92 50.22 72.03
  C 49.05 74.15 47.42 75.98 46.52 78.18
  Q 43.50 85.57 39.92 92.23
  C 36.26 99.05 33.87 106.24 31.19 113.54
  C 29.49 118.14 28.67 124.61 29.03 129.30
  Q 29.38 133.73 32.55 142.37
  Q 33.73 145.60 34.78 149.19
  C 36.61 155.49 41.54 160.29 46.63 164.77
  Q 52.50 169.94 58.28 171.74
  Q 61.30 172.68 64.12 172.84
  Q 67.00 173.01 69.92 173.24
  Q 77.11 173.80 83.99 172.25
  Q 87.40 171.48 90.14 171.54
  C 92.22 171.58 94.02 171.38 96.02 171.01
  Q 98.23 170.61 100.50 170.93
  C 104.00 171.42 107.28 170.62 110.69 172.00
  Q 111.99 172.52 113.43 172.59
  Q 113.86 172.61 114.20 172.88
  Q 115.19 173.67 116.59 173.69
  Q 117.19 173.69 117.64 174.07
  Q 118.55 174.80 119.13 174.23"
/>
<path stroke="#586165" vector-effect="non-scaling-stroke" d="
  M 129.0510 340.0411
  A 0.27 0.27 0.0 0 0 128.9055 339.6881
  L 128.6470 339.5805
  A 0.27 0.27 0.0 0 0 128.2940 339.7260
  L 117.7490 365.0589
  A 0.27 0.27 0.0 0 0 117.8945 365.4119
  L 118.1530 365.5195
  A 0.27 0.27 0.0 0 0 118.5060 365.3740
  L 129.0510 340.0411"
/>
<path stroke="#586165" vector-effect="non-scaling-stroke" d="
  M 238.82 163.53
  Q 239.12 172.75 239.10 181.50
  Q 239.09 183.34 239.75 184.89
  A 2.04 2.04 0.0 0 0 241.38 186.14
  Q 246.12 186.75 250.78 186.11
  A 1.54 1.53 -80.9 0 0 251.96 185.25
  Q 252.57 184.00 251.74 184.00"
/>
<path stroke="#747a7d" vector-effect="non-scaling-stroke" d="
  M 252.47 167.13
  Q 255.20 162.85 258.99 161.88
  Q 262.65 160.94 265.90 161.90
  Q 268.51 162.67 269.28 164.93
  Q 270.16 167.54 270.11 170.09
  Q 269.98 176.73 270.96 182.57
  C 271.44 185.43 272.35 186.80 275.23 187.49
  C 280.71 188.81 285.90 191.31 289.99 195.23
  C 292.78 197.90 295.96 200.10 297.98 203.51
  Q 301.25 209.03 302.97 215.64
  Q 304.61 221.94 303.36 228.34
  Q 301.68 236.90 297.60 243.79
  C 295.91 246.64 292.96 248.24 290.60 250.56
  Q 289.65 251.49 290.23 252.64
  Q 292.41 256.99 296.40 258.40
  Q 297.05 258.63 297.48 259.17
  Q 304.01 267.44 306.41 276.15
  C 307.85 281.38 307.31 286.98 305.11 292.02
  Q 303.94 294.73 302.83 297.35
  Q 300.74 302.31 297.56 306.92
  C 296.28 308.77 293.87 309.88 292.20 311.45
  C 288.75 314.65 283.48 317.36 278.58 317.99
  C 275.33 318.41 270.45 318.84 270.25 323.22
  Q 269.91 330.70 270.21 338.25
  C 270.27 339.79 269.90 341.38 268.38 342.14
  Q 262.57 345.02 256.64 342.64
  Q 255.75 342.28 255.05 341.60
  Q 254.06 340.63 253.95 340.00
  Q 253.53 337.62 251.99 335.82"
/>
<path stroke="#586165" vector-effect="non-scaling-stroke" d="
  M 251.56 325.90
  Q 253.12 323.21 252.29 320.73
  A 2.14 2.14 0.0 0 0 250.32 319.28
  L 242.57 319.09
  A 3.21 3.20 1.8 0 0 239.29 322.16
  Q 239.04 328.40 239.13 335.11
  C 239.17 337.77 239.22 339.69 237.04 341.43
  C 233.67 344.13 227.76 344.76 224.27 342.16
  C 221.77 340.29 220.79 336.83 220.80 333.36
  Q 220.82 328.68 220.70 324.00
  Q 220.66 322.37 219.21 321.95"
/>
<path stroke="#586165" vector-effect="non-scaling-stroke" d="
  M 214.77 320.98
  Q 208.80 319.75 201.99 319.92
  Q 194.41 320.11 191.10 313.28
  Q 189.26 309.48 192.21 305.49
  Q 195.43 301.12 198.61 300.79
  Q 207.97 299.83 218.74 301.26
  Q 219.33 301.33 219.39 300.74
  L 219.44 300.24
  Q 219.50 299.73 218.97 299.69
  L 216.76 299.54"
/>
<path stroke="#586165" vector-effect="non-scaling-stroke" d="
  M 199.36 206.72
  Q 192.58 201.85 190.85 198.40
  C 189.16 195.02 192.00 189.93 194.78 188.30
  Q 197.14 186.91 200.83 186.89
  Q 209.69 186.83 217.47 186.89
  A 3.61 3.61 0.0 0 0 221.10 183.30
  Q 221.13 178.34 221.02 173.00
  Q 220.93 168.58 222.87 163.51"
/>
<path stroke="#586165" vector-effect="non-scaling-stroke" d="
  M 239.37 209.19
  L 239.53 240.91
  A 3.47 3.47 0.0 0 0 243.02 244.37
  L 260.13 244.28
  A 22.80 17.56 -0.3 0 0 282.84 226.60
  L 282.82 223.06
  A 22.80 17.56 -0.3 0 0 259.93 205.62
  L 242.82 205.71
  A 3.47 3.47 0.0 0 0 239.37 209.19"
/>
<path stroke="#586165" vector-effect="non-scaling-stroke" d="
  M 284.32 281.79
  Q 284.94 280.40 284.35 278.02
  Q 282.77 271.62 278.64 268.38
  C 276.47 266.67 274.08 266.28 271.73 265.04
  Q 269.51 263.87 266.14 263.38
  Q 254.74 261.69 243.19 261.83
  C 240.90 261.86 239.62 262.49 239.40 264.97
  Q 238.87 271.11 238.89 276.78
  Q 238.93 287.00 239.04 297.20
  Q 239.07 300.52 242.20 300.87
  Q 250.40 301.81 262.52 301.36
  Q 272.07 301.01 278.42 296.56
  Q 284.27 292.47 284.67 285.02
  Q 284.71 284.16 284.21 283.85"
/>
</g>
<path fill="#152930" d="
  M 6.53 129.84
  Q 7.82 122.45 8.04 115.01
  Q 8.15 111.16 9.21 108.64
  C 10.89 104.64 12.86 101.18 13.61 96.60
  Q 14.17 93.19 15.79 90.22
  C 18.07 86.05 19.78 81.64 22.14 77.45
  Q 24.32 73.59 26.23 69.35
  Q 27.78 65.90 30.45 62.10
  Q 33.39 57.92 35.33 53.25
  Q 36.88 49.53 40.11 46.42
  C 42.98 43.65 44.81 40.14 47.85 37.52
  Q 52.24 33.73 56.49 29.70
  C 59.30 27.03 63.84 25.78 67.34 23.61
  Q 72.45 20.45 78.99 18.51
  Q 81.60 17.73 86.62 17.41
  Q 90.50 17.16 94.31 16.42
  Q 97.21 16.31 104.99 16.57
  Q 110.37 16.75 114.19 17.83
  Q 125.51 21.05 133.61 27.18
  Q 143.31 34.51 150.87 44.97
  Q 155.74 51.71 160.28 58.45
  C 167.39 69.02 175.34 77.40 186.23 83.85
  Q 192.38 87.48 198.59 90.91
  Q 200.51 91.97 202.76 92.64
  Q 217.62 97.06 232.33 100.04
  Q 239.33 103.61 244.00 103.58
  C 248.39 103.55 252.50 103.52 256.96 102.81
  Q 264.22 101.65 266.51 101.61
  Q 274.49 101.47 281.55 98.83
  Q 284.24 97.83 286.55 97.15
  Q 289.05 96.41 291.37 95.46
  C 293.65 94.53 296.23 94.07 298.32 92.82
  C 300.44 91.56 302.27 90.26 304.55 89.15
  C 309.78 86.59 316.03 83.11 320.19 78.73
  C 322.72 76.07 326.07 74.75 328.07 71.52
  Q 330.24 68.01 332.97 65.26
  Q 335.00 63.20 336.39 60.41
  Q 338.52 56.15 340.93 52.15
  C 342.50 49.55 344.96 47.81 346.55 45.32
  Q 349.95 39.97 354.71 35.92
  Q 359.17 32.13 363.39 28.36
  C 365.73 26.27 368.39 25.26 370.93 23.55
  C 377.43 19.17 385.68 16.91 393.50 16.23
  A 0.38 0.38 0.0 0 0 393.80 15.66
  L 393.50 15.15
  Q 410.27 13.83 422.76 18.43
  Q 434.40 22.71 446.99 34.64
  Q 460.42 47.36 469.19 65.37
  C 474.76 76.80 480.15 87.43 484.08 99.16
  C 488.05 111.04 489.75 123.51 488.91 135.76
  C 488.13 147.03 482.63 159.54 476.84 169.55
  Q 475.01 172.72 472.73 175.12
  Q 464.95 183.33 456.92 188.70
  Q 452.98 191.33 446.20 194.45
  Q 440.64 197.00 434.81 197.87
  C 424.33 199.45 414.97 198.86 405.06 196.53
  Q 400.81 195.54 396.97 195.95
  C 390.45 196.64 383.32 197.94 378.42 202.56
  C 374.59 206.16 369.94 210.48 367.48 215.24
  C 362.17 225.54 357.37 237.47 356.29 248.97
  Q 355.44 258.01 355.52 265.66
  C 355.62 274.08 355.38 283.05 356.70 291.53
  C 357.61 297.34 358.08 303.15 359.68 308.81
  Q 362.84 319.95 365.94 331.41
  C 368.30 340.13 372.22 348.53 375.11 357.20
  C 376.78 362.22 379.67 366.77 381.39 371.81
  C 384.06 379.61 387.61 387.79 388.99 395.76
  Q 391.10 407.97 390.63 417.12
  Q 390.14 426.46 384.18 441.02
  Q 376.12 460.74 356.12 470.16
  C 351.81 472.19 347.05 473.40 342.41 474.77
  C 334.70 477.04 326.87 478.21 318.98 477.48
  Q 302.03 475.92 288.32 467.15
  C 281.24 462.63 275.13 456.51 268.86 450.66
  C 265.33 447.37 261.23 444.04 256.72 442.56
  C 248.44 439.85 236.98 440.03 230.67 446.58
  Q 224.87 452.61 218.82 458.24
  Q 212.84 463.82 202.14 469.82
  C 197.78 472.26 192.62 473.78 187.90 475.15
  Q 171.16 480.02 153.65 475.85
  C 149.91 474.96 146.24 473.40 142.50 472.22
  Q 140.30 471.53 138.26 470.31
  C 128.23 464.35 118.53 456.52 112.47 446.58
  Q 101.36 428.36 103.72 405.12
  C 104.96 392.82 107.47 382.25 110.95 370.71
  Q 112.75 364.76 114.54 360.40
  Q 115.98 356.90 116.98 353.54
  C 118.60 348.10 121.29 342.94 123.87 337.91
  C 126.27 333.24 128.07 328.42 129.88 323.58
  Q 130.96 320.66 131.66 317.45
  Q 135.85 298.10 136.69 287.93
  Q 137.96 272.49 136.57 250.61
  C 136.03 242.15 133.73 233.70 131.50 225.70
  C 130.28 221.34 127.21 217.76 124.74 214.02
  C 119.94 206.79 114.83 202.40 105.95 199.34
  Q 102.16 198.03 96.25 197.69
  Q 88.39 197.24 85.96 197.59
  C 80.21 198.41 73.91 199.50 68.27 199.02
  C 61.60 198.46 55.36 198.58 49.11 195.73
  Q 37.81 190.60 26.39 180.66
  C 18.56 173.84 13.29 163.90 9.13 154.47
  Q 7.77 151.40 7.33 147.99
  Q 6.55 141.89 6.03 135.75
  Q 5.75 132.48 6.53 129.84
  Z
  M 119.13 174.23
  L 119.84 174.63
  Q 119.45 174.67 119.41 174.81
  A 0.43 0.42 -65.9 0 0 119.59 175.30
  Q 127.39 180.10 133.58 185.43
  Q 135.66 187.22 137.51 189.44
  Q 139.08 191.33 141.37 193.81
  Q 145.08 197.83 148.47 202.36
  C 149.06 203.16 149.11 203.86 149.61 204.64
  Q 152.20 208.68 153.67 211.81
  Q 154.76 214.12 155.73 217.15
  Q 156.64 220.02 157.53 222.73
  Q 157.91 223.88 158.17 225.22
  Q 160.67 237.94 163.04 251.18
  Q 163.82 263.68 162.81 276.43
  Q 161.59 286.39 160.73 296.23
  Q 160.50 298.82 159.90 301.20
  Q 159.26 303.73 158.98 306.22
  Q 158.81 307.73 158.43 309.25
  Q 158.07 310.71 157.84 312.32
  Q 156.60 321.16 154.58 330.20
  C 153.47 335.14 150.89 339.60 149.58 344.31
  Q 147.95 350.19 146.45 356.22
  Q 146.04 357.86 143.63 362.50
  Q 142.03 365.57 140.95 368.78
  Q 139.02 374.50 136.60 380.14
  C 135.28 383.21 133.27 385.51 132.12 388.70
  Q 129.33 396.45 128.24 403.66
  C 126.61 414.49 128.83 425.32 135.07 434.34
  C 140.02 441.49 145.86 446.90 153.88 450.21
  C 157.71 451.80 162.93 452.77 166.55 453.04
  Q 179.03 453.98 189.73 448.07
  Q 192.21 446.70 194.45 444.72
  C 197.19 442.30 200.10 440.05 202.97 437.79
  Q 204.75 436.37 206.22 434.43
  Q 207.74 432.42 209.58 431.08
  Q 212.37 429.07 214.55 427.09
  C 216.61 425.22 219.18 422.62 221.94 421.85
  C 224.91 421.03 227.16 419.31 230.32 418.95
  Q 239.02 417.96 247.44 417.53
  Q 257.25 417.03 266.44 419.82
  Q 272.29 421.59 278.55 425.99
  Q 285.41 430.81 289.30 435.31
  C 292.03 438.48 295.23 440.87 298.09 443.78
  Q 301.04 446.79 304.89 448.63
  Q 314.38 453.18 324.92 453.25
  C 328.66 453.27 332.93 452.39 336.65 451.51
  C 341.62 450.35 346.48 447.61 350.46 443.73
  C 353.59 440.69 356.75 438.35 357.81 433.80
  A 1.65 1.64 77.4 0 1 358.40 432.87
  Q 360.08 431.59 361.13 429.84
  Q 368.45 417.53 365.62 402.76
  Q 364.08 394.73 361.03 388.71
  C 357.04 380.81 353.59 373.07 350.24 365.37
  Q 348.49 361.31 347.02 356.39
  Q 345.61 351.64 343.86 347.71
  Q 342.14 343.86 341.15 339.71
  C 340.52 337.06 339.64 334.74 339.08 332.23
  Q 335.57 316.75 332.39 301.36
  C 331.80 298.49 331.69 295.65 331.18 292.73
  Q 330.63 289.62 330.57 286.57
  Q 330.30 272.50 330.11 258.74
  C 330.04 253.43 330.79 248.18 331.37 242.79
  Q 331.81 238.77 332.88 235.73
  Q 334.15 232.12 334.44 228.65
  C 334.83 224.05 336.89 219.79 338.00 215.28
  C 338.78 212.12 340.27 209.50 341.85 206.68
  C 343.88 203.04 346.63 200.23 348.59 196.71
  C 350.51 193.26 353.83 190.55 356.42 187.55
  C 359.67 183.79 364.22 180.45 368.60 178.10
  Q 370.77 176.94 372.83 175.79
  C 376.19 173.89 379.93 172.86 383.62 171.95
  C 385.92 171.39 388.19 171.74 390.60 171.35
  Q 395.84 170.48 401.58 171.43
  Q 404.49 171.91 407.43 172.26
  Q 414.27 173.05 418.50 173.36
  Q 426.88 173.98 435.24 171.26
  Q 440.53 169.54 443.11 166.85
  Q 444.71 165.16 446.78 164.03
  C 451.61 161.39 454.16 156.74 457.16 152.30
  Q 458.76 149.93 459.27 147.51
  C 460.06 143.77 461.84 140.55 462.22 136.80
  C 462.65 132.54 463.91 128.70 463.29 124.29
  Q 462.68 119.99 462.16 115.81
  C 461.87 113.43 460.85 111.42 460.31 109.12
  Q 459.76 106.73 458.65 104.33
  Q 456.18 98.93 453.55 94.10
  C 452.30 91.79 451.50 88.88 450.37 86.90
  Q 445.15 77.73 441.21 68.29
  C 440.17 65.78 438.59 63.25 436.92 61.10
  Q 434.40 57.87 431.63 54.44
  C 426.66 48.27 418.35 44.19 411.00 41.61
  C 403.75 39.06 396.47 39.31 388.84 41.09
  Q 384.91 42.01 379.93 44.59
  Q 374.90 47.20 371.40 49.66
  Q 369.02 51.33 367.46 53.51
  Q 362.90 59.90 358.22 66.60
  C 355.69 70.24 354.80 74.13 351.66 77.44
  C 349.54 79.66 348.31 82.49 346.08 84.71
  Q 341.60 89.18 337.62 93.65
  C 334.64 96.99 330.80 100.41 326.99 102.71
  Q 321.80 105.86 316.55 109.40
  C 312.81 111.93 308.89 113.56 304.74 115.32
  Q 301.26 116.78 297.98 118.32
  Q 292.19 121.03 286.62 122.03
  Q 282.96 122.68 279.35 123.60
  Q 275.86 124.49 272.02 124.80
  C 268.40 125.09 265.36 125.67 262.01 126.08
  C 257.25 126.65 252.39 126.38 247.49 126.25
  Q 245.44 126.20 240.53 126.43
  Q 232.43 126.80 223.75 124.90
  C 222.37 124.60 220.59 124.72 219.09 124.41
  Q 211.91 122.91 203.50 121.23
  Q 198.96 120.32 188.59 115.09
  Q 186.57 114.08 184.31 113.50
  C 181.43 112.75 179.31 110.76 176.95 109.02
  Q 175.46 107.93 173.63 107.02
  Q 165.71 103.05 161.31 99.14
  Q 153.75 92.43 144.34 82.00
  C 140.22 77.43 137.69 70.49 133.70 64.96
  Q 131.43 61.80 129.35 58.57
  Q 125.01 51.81 117.70 47.04
  Q 114.31 44.82 106.62 41.59
  C 104.63 40.75 102.54 40.75 100.47 40.24
  C 93.72 38.58 85.53 40.41 78.86 43.20
  Q 71.20 46.41 66.77 49.82
  Q 60.03 55.02 57.76 58.83
  Q 54.12 64.92 50.22 72.03
  C 49.05 74.15 47.42 75.98 46.52 78.18
  Q 43.50 85.57 39.92 92.23
  C 36.26 99.05 33.87 106.24 31.19 113.54
  C 29.49 118.14 28.67 124.61 29.03 129.30
  Q 29.38 133.73 32.55 142.37
  Q 33.73 145.60 34.78 149.19
  C 36.61 155.49 41.54 160.29 46.63 164.77
  Q 52.50 169.94 58.28 171.74
  Q 61.30 172.68 64.12 172.84
  Q 67.00 173.01 69.92 173.24
  Q 77.11 173.80 83.99 172.25
  Q 87.40 171.48 90.14 171.54
  C 92.22 171.58 94.02 171.38 96.02 171.01
  Q 98.23 170.61 100.50 170.93
  C 104.00 171.42 107.28 170.62 110.69 172.00
  Q 111.99 172.52 113.43 172.59
  Q 113.86 172.61 114.20 172.88
  Q 115.19 173.67 116.59 173.69
  Q 117.19 173.69 117.64 174.07
  Q 118.55 174.80 119.13 174.23
  Z
  M 129.0510 340.0411
  A 0.27 0.27 0.0 0 0 128.9055 339.6881
  L 128.6470 339.5805
  A 0.27 0.27 0.0 0 0 128.2940 339.7260
  L 117.7490 365.0589
  A 0.27 0.27 0.0 0 0 117.8945 365.4119
  L 118.1530 365.5195
  A 0.27 0.27 0.0 0 0 118.5060 365.3740
  L 129.0510 340.0411
  Z"
/>
<path fill="#9a9899" d="
  M 393.50 15.15
  L 393.80 15.66
  A 0.38 0.38 0.0 0 1 393.50 16.23
  C 385.68 16.91 377.43 19.17 370.93 23.55
  C 368.39 25.26 365.73 26.27 363.39 28.36
  Q 359.17 32.13 354.71 35.92
  Q 349.95 39.97 346.55 45.32
  C 344.96 47.81 342.50 49.55 340.93 52.15
  Q 338.52 56.15 336.39 60.41
  Q 335.00 63.20 332.97 65.26
  Q 330.24 68.01 328.07 71.52
  C 326.07 74.75 322.72 76.07 320.19 78.73
  C 316.03 83.11 309.78 86.59 304.55 89.15
  C 302.27 90.26 300.44 91.56 298.32 92.82
  C 296.23 94.07 293.65 94.53 291.37 95.46
  Q 289.05 96.41 286.55 97.15
  Q 284.24 97.83 281.55 98.83
  Q 274.49 101.47 266.51 101.61
  Q 264.22 101.65 256.96 102.81
  C 252.50 103.52 248.39 103.55 244.00 103.58
  Q 239.33 103.61 232.33 100.04
  C 240.29 101.40 247.51 103.44 255.70 101.91
  Q 261.55 100.81 267.41 100.73
  C 274.13 100.63 280.85 97.33 287.19 95.39
  C 291.46 94.08 295.92 92.13 299.68 89.61
  C 302.42 87.78 305.54 86.67 308.35 84.86
  Q 318.01 78.67 324.95 71.69
  Q 326.85 69.77 330.79 64.54
  C 334.80 59.22 337.93 53.19 341.73 47.85
  Q 349.52 36.88 359.85 28.72
  Q 365.86 23.97 373.52 20.25
  Q 381.93 16.16 393.50 15.15
  Z"
/>
<path fill="#9a9899" d="
  M 94.31 16.42
  Q 90.50 17.16 86.62 17.41
  Q 81.60 17.73 78.99 18.51
  Q 72.45 20.45 67.34 23.61
  C 63.84 25.78 59.30 27.03 56.49 29.70
  Q 52.24 33.73 47.85 37.52
  C 44.81 40.14 42.98 43.65 40.11 46.42
  Q 36.88 49.53 35.33 53.25
  Q 33.39 57.92 30.45 62.10
  Q 27.78 65.90 26.23 69.35
  Q 24.32 73.59 22.14 77.45
  C 19.78 81.64 18.07 86.05 15.79 90.22
  Q 14.17 93.19 13.61 96.60
  C 12.86 101.18 10.89 104.64 9.21 108.64
  Q 8.15 111.16 8.04 115.01
  Q 7.82 122.45 6.53 129.84
  Q 6.48 117.78 7.29 111.25
  Q 7.71 107.94 9.76 101.83
  Q 12.05 99.77 11.65 96.04
  L 16.66 82.22
  L 16.51 83.62
  Q 16.43 84.46 16.78 83.69
  Q 17.46 82.23 17.48 80.45
  L 21.00 73.74
  Q 22.90 72.91 22.71 70.50
  Q 25.17 66.09 27.26 61.49
  C 28.67 58.38 30.86 56.27 32.43 53.37
  C 37.37 44.29 44.00 38.18 51.38 31.37
  Q 55.06 27.97 59.45 25.33
  Q 65.19 21.88 68.46 20.41
  Q 71.95 18.84 80.49 16.52
  Q 84.91 15.33 94.31 16.42
  Z"
/>
<path fill="#d3cbc9" d="
  M 162.81 276.43
  Q 162.92 289.65 161.39 302.64
  C 160.51 310.17 158.69 317.42 157.35 324.92
  Q 156.17 331.53 154.36 336.74
  Q 152.27 342.79 151.14 346.89
  Q 149.60 352.45 147.90 357.10
  Q 142.36 372.21 134.92 386.37
  C 133.29 389.46 132.05 392.78 131.15 396.07
  Q 130.34 399.05 129.59 408.41
  Q 129.24 412.77 130.22 418.38
  Q 133.06 434.73 145.95 444.33
  Q 152.01 448.85 157.94 450.61
  Q 177.37 456.37 193.99 443.47
  Q 202.34 436.98 209.27 430.35
  Q 212.79 426.99 216.56 424.05
  C 221.38 420.32 227.84 417.87 234.38 417.17
  Q 239.00 416.67 243.76 416.20
  Q 251.95 415.41 262.72 417.61
  C 267.68 418.63 273.19 421.03 277.31 423.98
  Q 280.76 426.45 284.42 429.17
  C 290.39 433.59 295.58 439.48 300.99 444.46
  C 309.87 452.64 324.37 453.39 335.67 450.83
  C 344.96 448.73 351.20 442.51 356.86 434.69
  Q 357.17 434.26 357.02 433.75
  L 356.75 432.81
  Q 356.58 432.23 356.92 431.73
  Q 360.97 425.65 362.84 420.39
  C 365.24 413.61 364.39 406.19 362.95 399.15
  Q 361.99 394.40 359.68 389.37
  C 354.49 378.06 348.86 367.00 344.68 355.20
  Q 340.72 344.02 339.23 339.06
  Q 336.02 328.36 333.92 316.39
  Q 331.96 305.25 330.52 296.57
  Q 326.68 273.42 329.58 247.50
  Q 330.28 241.23 331.77 234.10
  Q 332.98 228.31 334.51 220.80
  Q 335.18 217.50 336.97 212.20
  Q 338.08 208.93 340.25 206.11
  C 342.74 202.86 344.61 199.49 347.27 196.15
  C 350.45 192.16 353.76 187.73 357.53 184.54
  Q 367.22 176.34 379.44 172.14
  Q 382.21 171.19 386.10 170.79
  C 390.67 170.33 394.60 169.43 399.59 169.99
  Q 402.93 170.36 406.38 170.61
  C 415.96 171.28 425.34 173.18 434.44 169.88
  Q 439.70 167.97 446.27 163.12
  Q 457.98 154.47 460.80 137.11
  Q 463.11 122.88 459.93 112.81
  C 458.52 108.37 457.05 104.12 454.92 99.89
  Q 450.42 90.91 446.01 82.06
  Q 443.27 76.57 440.48 70.72
  Q 438.35 66.27 434.00 59.96
  Q 430.14 54.35 425.85 51.05
  Q 415.24 42.88 403.58 40.67
  C 400.03 40.00 397.01 40.34 393.57 41.06
  Q 383.44 43.20 374.03 50.15
  Q 369.20 53.73 364.49 60.53
  Q 360.26 66.64 356.63 72.66
  C 354.99 75.37 353.01 77.81 351.33 80.42
  Q 349.48 83.29 347.07 85.99
  C 340.35 93.48 334.06 99.83 325.75 105.23
  C 317.35 110.69 309.98 115.24 300.57 119.11
  Q 293.53 122.02 285.38 123.98
  Q 276.32 126.16 268.92 126.88
  C 263.64 127.39 258.44 128.24 253.18 128.25
  C 239.84 128.27 226.66 127.54 213.79 124.98
  Q 206.16 123.46 200.80 121.77
  Q 193.18 119.36 182.30 114.08
  Q 176.83 111.42 171.04 107.56
  Q 164.86 103.45 160.88 100.18
  Q 153.37 94.01 144.61 83.90
  C 141.67 80.52 139.59 76.79 137.07 73.19
  Q 130.72 64.10 125.34 55.31
  Q 124.01 53.14 121.99 51.59
  Q 110.66 42.89 97.97 40.82
  Q 94.73 40.29 91.43 40.90
  C 78.70 43.25 66.09 49.11 58.87 60.05
  C 51.65 70.99 45.66 83.34 40.27 95.04
  C 38.21 99.51 36.51 104.25 34.93 108.93
  Q 32.34 116.61 30.88 125.87
  C 30.60 127.70 30.92 130.21 31.38 132.01
  Q 33.26 139.32 35.03 146.36
  C 37.02 154.23 42.54 160.02 48.80 165.41
  C 51.34 167.60 54.16 169.21 57.19 170.46
  C 61.19 172.11 65.14 170.24 69.14 171.80
  Q 70.45 172.31 71.98 172.16
  Q 84.31 171.01 96.06 170.30
  C 100.89 170.01 105.75 170.70 110.50 171.26
  Q 113.29 171.59 119.13 174.23
  Q 118.55 174.80 117.64 174.07
  Q 117.19 173.69 116.59 173.69
  Q 115.19 173.67 114.20 172.88
  Q 113.86 172.61 113.43 172.59
  Q 111.99 172.52 110.69 172.00
  C 107.28 170.62 104.00 171.42 100.50 170.93
  Q 98.23 170.61 96.02 171.01
  C 94.02 171.38 92.22 171.58 90.14 171.54
  Q 87.40 171.48 83.99 172.25
  Q 77.11 173.80 69.92 173.24
  Q 67.00 173.01 64.12 172.84
  Q 61.30 172.68 58.28 171.74
  Q 52.50 169.94 46.63 164.77
  C 41.54 160.29 36.61 155.49 34.78 149.19
  Q 33.73 145.60 32.55 142.37
  Q 29.38 133.73 29.03 129.30
  C 28.67 124.61 29.49 118.14 31.19 113.54
  C 33.87 106.24 36.26 99.05 39.92 92.23
  Q 43.50 85.57 46.52 78.18
  C 47.42 75.98 49.05 74.15 50.22 72.03
  Q 54.12 64.92 57.76 58.83
  Q 60.03 55.02 66.77 49.82
  Q 71.20 46.41 78.86 43.20
  C 85.53 40.41 93.72 38.58 100.47 40.24
  C 102.54 40.75 104.63 40.75 106.62 41.59
  Q 114.31 44.82 117.70 47.04
  Q 125.01 51.81 129.35 58.57
  Q 131.43 61.80 133.70 64.96
  C 137.69 70.49 140.22 77.43 144.34 82.00
  Q 153.75 92.43 161.31 99.14
  Q 165.71 103.05 173.63 107.02
  Q 175.46 107.93 176.95 109.02
  C 179.31 110.76 181.43 112.75 184.31 113.50
  Q 186.57 114.08 188.59 115.09
  Q 198.96 120.32 203.50 121.23
  Q 211.91 122.91 219.09 124.41
  C 220.59 124.72 222.37 124.60 223.75 124.90
  Q 232.43 126.80 240.53 126.43
  Q 245.44 126.20 247.49 126.25
  C 252.39 126.38 257.25 126.65 262.01 126.08
  C 265.36 125.67 268.40 125.09 272.02 124.80
  Q 275.86 124.49 279.35 123.60
  Q 282.96 122.68 286.62 122.03
  Q 292.19 121.03 297.98 118.32
  Q 301.26 116.78 304.74 115.32
  C 308.89 113.56 312.81 111.93 316.55 109.40
  Q 321.80 105.86 326.99 102.71
  C 330.80 100.41 334.64 96.99 337.62 93.65
  Q 341.60 89.18 346.08 84.71
  C 348.31 82.49 349.54 79.66 351.66 77.44
  C 354.80 74.13 355.69 70.24 358.22 66.60
  Q 362.90 59.90 367.46 53.51
  Q 369.02 51.33 371.40 49.66
  Q 374.90 47.20 379.93 44.59
  Q 384.91 42.01 388.84 41.09
  C 396.47 39.31 403.75 39.06 411.00 41.61
  C 418.35 44.19 426.66 48.27 431.63 54.44
  Q 434.40 57.87 436.92 61.10
  C 438.59 63.25 440.17 65.78 441.21 68.29
  Q 445.15 77.73 450.37 86.90
  C 451.50 88.88 452.30 91.79 453.55 94.10
  Q 456.18 98.93 458.65 104.33
  Q 459.76 106.73 460.31 109.12
  C 460.85 111.42 461.87 113.43 462.16 115.81
  Q 462.68 119.99 463.29 124.29
  C 463.91 128.70 462.65 132.54 462.22 136.80
  C 461.84 140.55 460.06 143.77 459.27 147.51
  Q 458.76 149.93 457.16 152.30
  C 454.16 156.74 451.61 161.39 446.78 164.03
  Q 444.71 165.16 443.11 166.85
  Q 440.53 169.54 435.24 171.26
  Q 426.88 173.98 418.50 173.36
  Q 414.27 173.05 407.43 172.26
  Q 404.49 171.91 401.58 171.43
  Q 395.84 170.48 390.60 171.35
  C 388.19 171.74 385.92 171.39 383.62 171.95
  C 379.93 172.86 376.19 173.89 372.83 175.79
  Q 370.77 176.94 368.60 178.10
  C 364.22 180.45 359.67 183.79 356.42 187.55
  C 353.83 190.55 350.51 193.26 348.59 196.71
  C 346.63 200.23 343.88 203.04 341.85 206.68
  C 340.27 209.50 338.78 212.12 338.00 215.28
  C 336.89 219.79 334.83 224.05 334.44 228.65
  Q 334.15 232.12 332.88 235.73
  Q 331.81 238.77 331.37 242.79
  C 330.79 248.18 330.04 253.43 330.11 258.74
  Q 330.30 272.50 330.57 286.57
  Q 330.63 289.62 331.18 292.73
  C 331.69 295.65 331.80 298.49 332.39 301.36
  Q 335.57 316.75 339.08 332.23
  C 339.64 334.74 340.52 337.06 341.15 339.71
  Q 342.14 343.86 343.86 347.71
  Q 345.61 351.64 347.02 356.39
  Q 348.49 361.31 350.24 365.37
  C 353.59 373.07 357.04 380.81 361.03 388.71
  Q 364.08 394.73 365.62 402.76
  Q 368.45 417.53 361.13 429.84
  Q 360.08 431.59 358.40 432.87
  A 1.65 1.64 77.4 0 0 357.81 433.80
  C 356.75 438.35 353.59 440.69 350.46 443.73
  C 346.48 447.61 341.62 450.35 336.65 451.51
  C 332.93 452.39 328.66 453.27 324.92 453.25
  Q 314.38 453.18 304.89 448.63
  Q 301.04 446.79 298.09 443.78
  C 295.23 440.87 292.03 438.48 289.30 435.31
  Q 285.41 430.81 278.55 425.99
  Q 272.29 421.59 266.44 419.82
  Q 257.25 417.03 247.44 417.53
  Q 239.02 417.96 230.32 418.95
  C 227.16 419.31 224.91 421.03 221.94 421.85
  C 219.18 422.62 216.61 425.22 214.55 427.09
  Q 212.37 429.07 209.58 431.08
  Q 207.74 432.42 206.22 434.43
  Q 204.75 436.37 202.97 437.79
  C 200.10 440.05 197.19 442.30 194.45 444.72
  Q 192.21 446.70 189.73 448.07
  Q 179.03 453.98 166.55 453.04
  C 162.93 452.77 157.71 451.80 153.88 450.21
  C 145.86 446.90 140.02 441.49 135.07 434.34
  C 128.83 425.32 126.61 414.49 128.24 403.66
  Q 129.33 396.45 132.12 388.70
  C 133.27 385.51 135.28 383.21 136.60 380.14
  Q 139.02 374.50 140.95 368.78
  Q 142.03 365.57 143.63 362.50
  Q 146.04 357.86 146.45 356.22
  Q 147.95 350.19 149.58 344.31
  C 150.89 339.60 153.47 335.14 154.58 330.20
  Q 156.60 321.16 157.84 312.32
  Q 158.07 310.71 158.43 309.25
  Q 158.81 307.73 158.98 306.22
  Q 159.26 303.73 159.90 301.20
  Q 160.50 298.82 160.73 296.23
  Q 161.59 286.39 162.81 276.43
  Z"
/>
<path fill="#152930" d="
  M 22.71 70.50
  Q 22.90 72.91 21.00 73.74
  L 22.71 70.50
  Z"
/>
<path fill="#152930" d="
  M 17.48 80.45
  Q 17.46 82.23 16.78 83.69
  Q 16.43 84.46 16.51 83.62
  L 16.66 82.22
  Q 16.90 81.27 17.48 80.45
  Z"
/>
<path fill="#152930" d="
  M 11.65 96.04
  Q 12.05 99.77 9.76 101.83
  L 11.65 96.04
  Z"
/>
<ellipse fill="#d3cbc9" cx="0.00" cy="0.00" transform="translate(398.42,121.88) rotate(-43.8)" rx="1.91" ry="1.16"/>
<path fill="#152930" d="
  M 94.33 122.16
  Q 94.66 122.69 94.10 122.40
  Q 93.04 121.84 92.85 120.82
  A 0.28 0.28 0.0 0 1 93.37 120.62
  L 94.33 122.16
  Z"
/>
<path fill="#152930" d="
  M 238.82 163.53
  Q 239.12 172.75 239.10 181.50
  Q 239.09 183.34 239.75 184.89
  A 2.04 2.04 0.0 0 0 241.38 186.14
  Q 246.12 186.75 250.78 186.11
  A 1.54 1.53 -80.9 0 0 251.96 185.25
  Q 252.57 184.00 251.74 184.00
  Q 252.52 181.57 252.38 179.75
  Q 251.84 172.77 252.47 167.13
  Q 255.20 162.85 258.99 161.88
  Q 262.65 160.94 265.90 161.90
  Q 268.51 162.67 269.28 164.93
  Q 270.16 167.54 270.11 170.09
  Q 269.98 176.73 270.96 182.57
  C 271.44 185.43 272.35 186.80 275.23 187.49
  C 280.71 188.81 285.90 191.31 289.99 195.23
  C 292.78 197.90 295.96 200.10 297.98 203.51
  Q 301.25 209.03 302.97 215.64
  Q 304.61 221.94 303.36 228.34
  Q 301.68 236.90 297.60 243.79
  C 295.91 246.64 292.96 248.24 290.60 250.56
  Q 289.65 251.49 290.23 252.64
  Q 292.41 256.99 296.40 258.40
  Q 297.05 258.63 297.48 259.17
  Q 304.01 267.44 306.41 276.15
  C 307.85 281.38 307.31 286.98 305.11 292.02
  Q 303.94 294.73 302.83 297.35
  Q 300.74 302.31 297.56 306.92
  C 296.28 308.77 293.87 309.88 292.20 311.45
  C 288.75 314.65 283.48 317.36 278.58 317.99
  C 275.33 318.41 270.45 318.84 270.25 323.22
  Q 269.91 330.70 270.21 338.25
  C 270.27 339.79 269.90 341.38 268.38 342.14
  Q 262.57 345.02 256.64 342.64
  Q 255.75 342.28 255.05 341.60
  Q 254.06 340.63 253.95 340.00
  Q 253.53 337.62 251.99 335.82
  L 251.56 325.90
  Q 253.12 323.21 252.29 320.73
  A 2.14 2.14 0.0 0 0 250.32 319.28
  L 242.57 319.09
  A 3.21 3.20 1.8 0 0 239.29 322.16
  Q 239.04 328.40 239.13 335.11
  C 239.17 337.77 239.22 339.69 237.04 341.43
  C 233.67 344.13 227.76 344.76 224.27 342.16
  C 221.77 340.29 220.79 336.83 220.80 333.36
  Q 220.82 328.68 220.70 324.00
  Q 220.66 322.37 219.21 321.95
  L 214.77 320.98
  Q 208.80 319.75 201.99 319.92
  Q 194.41 320.11 191.10 313.28
  Q 189.26 309.48 192.21 305.49
  Q 195.43 301.12 198.61 300.79
  Q 207.97 299.83 218.74 301.26
  Q 219.33 301.33 219.39 300.74
  L 219.44 300.24
  Q 219.50 299.73 218.97 299.69
  L 216.76 299.54
  Q 218.24 299.82 219.13 299.35
  Q 219.58 299.11 219.59 298.59
  Q 219.95 269.02 219.59 257.49
  Q 219.32 248.61 219.26 240.71
  C 219.20 232.06 218.61 223.50 218.79 214.84
  C 218.83 212.74 218.48 210.68 218.44 208.60
  A 1.56 1.56 0.0 0 0 216.91 207.07
  L 199.36 206.72
  Q 192.58 201.85 190.85 198.40
  C 189.16 195.02 192.00 189.93 194.78 188.30
  Q 197.14 186.91 200.83 186.89
  Q 209.69 186.83 217.47 186.89
  A 3.61 3.61 0.0 0 0 221.10 183.30
  Q 221.13 178.34 221.02 173.00
  Q 220.93 168.58 222.87 163.51
  Q 223.70 161.29 227.75 160.70
  Q 234.36 159.74 238.82 163.53
  Z
  M 239.37 209.19
  L 239.53 240.91
  A 3.47 3.47 0.0 0 0 243.02 244.37
  L 260.13 244.28
  A 22.80 17.56 -0.3 0 0 282.84 226.60
  L 282.82 223.06
  A 22.80 17.56 -0.3 0 0 259.93 205.62
  L 242.82 205.71
  A 3.47 3.47 0.0 0 0 239.37 209.19
  Z
  M 284.21 283.85
  L 284.32 281.79
  Q 284.94 280.40 284.35 278.02
  Q 282.77 271.62 278.64 268.38
  C 276.47 266.67 274.08 266.28 271.73 265.04
  Q 269.51 263.87 266.14 263.38
  Q 254.74 261.69 243.19 261.83
  C 240.90 261.86 239.62 262.49 239.40 264.97
  Q 238.87 271.11 238.89 276.78
  Q 238.93 287.00 239.04 297.20
  Q 239.07 300.52 242.20 300.87
  Q 250.40 301.81 262.52 301.36
  Q 272.07 301.01 278.42 296.56
  Q 284.27 292.47 284.67 285.02
  Q 284.71 284.16 284.21 283.85
  Z"
/>
<path fill="#d3cbc9" d="
  M 251.99 335.82
  Q 253.53 337.62 253.95 340.00
  Q 254.06 340.63 255.05 341.60
  Q 255.75 342.28 256.64 342.64
  Q 262.57 345.02 268.38 342.14
  C 269.90 341.38 270.27 339.79 270.21 338.25
  Q 269.91 330.70 270.25 323.22
  C 270.45 318.84 275.33 318.41 278.58 317.99
  C 283.48 317.36 288.75 314.65 292.20 311.45
  C 293.87 309.88 296.28 308.77 297.56 306.92
  Q 300.74 302.31 302.83 297.35
  Q 303.94 294.73 305.11 292.02
  C 307.31 286.98 307.85 281.38 306.41 276.15
  Q 304.01 267.44 297.48 259.17
  Q 297.05 258.63 296.40 258.40
  Q 292.41 256.99 290.23 252.64
  Q 289.65 251.49 290.60 250.56
  C 292.96 248.24 295.91 246.64 297.60 243.79
  Q 301.68 236.90 303.36 228.34
  Q 304.61 221.94 302.97 215.64
  Q 301.25 209.03 297.98 203.51
  C 295.96 200.10 292.78 197.90 289.99 195.23
  C 285.90 191.31 280.71 188.81 275.23 187.49
  C 272.35 186.80 271.44 185.43 270.96 182.57
  Q 269.98 176.73 270.11 170.09
  Q 270.16 167.54 269.28 164.93
  Q 268.51 162.67 265.90 161.90
  Q 262.65 160.94 258.99 161.88
  Q 255.20 162.85 252.47 167.13
  Q 252.65 164.13 254.02 162.48
  C 256.14 159.93 262.78 160.35 265.67 160.79
  Q 270.33 161.50 270.92 166.04
  Q 271.68 171.89 271.46 178.19
  C 271.31 182.70 274.59 185.42 278.51 186.85
  Q 285.55 189.42 291.95 195.03
  Q 307.99 209.11 304.70 228.95
  Q 303.45 236.45 298.56 245.27
  C 297.30 247.53 295.61 249.31 293.96 251.26
  Q 292.88 252.54 293.54 253.94
  C 294.48 255.93 296.80 255.33 297.99 257.07
  C 303.93 265.75 310.35 275.98 307.73 286.56
  Q 305.47 295.68 301.51 303.22
  C 300.15 305.81 298.62 308.48 296.27 310.27
  Q 292.41 313.20 288.60 315.91
  C 284.17 319.07 278.59 318.97 274.13 322.07
  Q 271.84 323.66 271.62 326.69
  Q 271.23 332.31 271.25 339.05
  Q 271.25 340.38 270.85 341.74
  Q 270.71 342.23 270.27 342.48
  Q 265.41 345.27 262.22 345.27
  Q 258.52 345.26 253.15 342.86
  Q 252.64 342.63 252.59 342.08
  L 251.99 335.82
  Z"
/>
<path fill="#9a9899" d="
  M 222.87 163.51
  Q 220.93 168.58 221.02 173.00
  Q 221.13 178.34 221.10 183.30
  A 3.61 3.61 0.0 0 1 217.47 186.89
  Q 209.69 186.83 200.83 186.89
  Q 197.14 186.91 194.78 188.30
  C 192.00 189.93 189.16 195.02 190.85 198.40
  Q 192.58 201.85 199.36 206.72
  Q 193.57 206.17 190.88 201.10
  Q 188.29 196.20 190.96 190.89
  C 193.24 186.36 197.24 184.74 202.27 185.01
  C 207.50 185.29 213.41 185.71 218.32 184.89
  A 1.50 1.49 -5.3 0 0 219.58 183.38
  Q 219.44 177.00 219.80 170.50
  Q 220.03 166.20 222.87 163.51
  Z"
/>
<path fill="#9a9899" d="
  M 238.82 163.53
  Q 241.62 165.93 241.61 171.50
  Q 241.60 177.52 241.25 183.40
  A 1.39 1.39 0.0 0 0 242.40 184.85
  C 245.15 185.34 249.49 186.45 251.74 184.00
  Q 252.57 184.00 251.96 185.25
  A 1.54 1.53 -80.9 0 1 250.78 186.11
  Q 246.12 186.75 241.38 186.14
  A 2.04 2.04 0.0 0 1 239.75 184.89
  Q 239.09 183.34 239.10 181.50
  Q 239.12 172.75 238.82 163.53
  Z"
/>
<path fill="#9a9899" d="
  M 119.84 174.63
  Q 129.28 180.00 137.02 187.74
  C 143.14 193.86 147.87 199.17 151.72 206.04
  Q 152.68 207.76 154.33 209.13
  Q 155.94 210.47 156.65 212.65
  Q 159.24 220.55 160.79 229.50
  Q 162.12 237.23 163.04 251.18
  Q 160.67 237.94 158.17 225.22
  Q 157.91 223.88 157.53 222.73
  Q 156.64 220.02 155.73 217.15
  Q 154.76 214.12 153.67 211.81
  Q 152.20 208.68 149.61 204.64
  C 149.11 203.86 149.06 203.16 148.47 202.36
  Q 145.08 197.83 141.37 193.81
  Q 139.08 191.33 137.51 189.44
  Q 135.66 187.22 133.58 185.43
  Q 127.39 180.10 119.59 175.30
  A 0.43 0.42 -65.9 0 1 119.41 174.81
  Q 119.45 174.67 119.84 174.63
  Z"
/>
<path fill="#9a9899" d="
  M 239.37 209.19
  A 3.47 3.47 0.0 0 1 242.82 205.71
  L 259.93 205.62
  A 22.80 17.56 -0.3 0 1 282.82 223.06
  L 282.84 226.60
  A 22.80 17.56 -0.3 0 1 260.13 244.28
  L 243.02 244.37
  A 3.47 3.47 0.0 0 1 239.53 240.91
  L 239.37 209.19
  Z
  M 242.87 207.03
  A 1.73 1.72 87.5 0 0 241.30 208.75
  L 241.42 241.41
  A 0.86 0.86 0.0 0 0 242.23 242.27
  Q 249.83 242.72 257.95 242.40
  Q 267.62 242.02 276.75 237.32
  Q 278.34 236.50 279.01 234.71
  Q 280.50 230.69 281.68 226.90
  C 282.95 222.84 279.95 218.22 277.83 214.89
  C 274.83 210.17 268.21 208.33 263.00 207.60
  Q 252.60 206.14 242.87 207.03
  Z"
/>
<path fill="#9a9899" d="
  M 284.32 281.79
  C 283.58 280.41 282.88 278.93 282.60 277.38
  Q 281.18 269.40 273.30 266.72
  C 263.50 263.39 252.89 263.53 242.41 264.05
  A 0.86 0.85 -88.4 0 0 241.61 264.81
  C 240.97 270.76 241.52 276.57 241.45 282.49
  Q 241.36 289.92 241.30 297.94
  A 1.43 1.43 0.0 0 0 242.71 299.39
  Q 251.19 299.53 259.86 299.61
  Q 264.74 299.65 270.25 298.27
  C 278.08 296.30 281.70 291.14 284.21 283.85
  Q 284.71 284.16 284.67 285.02
  Q 284.27 292.47 278.42 296.56
  Q 272.07 301.01 262.52 301.36
  Q 250.40 301.81 242.20 300.87
  Q 239.07 300.52 239.04 297.20
  Q 238.93 287.00 238.89 276.78
  Q 238.87 271.11 239.40 264.97
  C 239.62 262.49 240.90 261.86 243.19 261.83
  Q 254.74 261.69 266.14 263.38
  Q 269.51 263.87 271.73 265.04
  C 274.08 266.28 276.47 266.67 278.64 268.38
  Q 282.77 271.62 284.35 278.02
  Q 284.94 280.40 284.32 281.79
  Z"
/>
<path fill="#9a9899" d="
  M 216.76 299.54
  L 218.97 299.69
  Q 219.50 299.73 219.44 300.24
  L 219.39 300.74
  Q 219.33 301.33 218.74 301.26
  Q 207.97 299.83 198.61 300.79
  Q 195.43 301.12 192.21 305.49
  Q 189.26 309.48 191.10 313.28
  Q 194.41 320.11 201.99 319.92
  Q 208.80 319.75 214.77 320.98
  Q 203.26 321.54 199.74 321.09
  C 193.11 320.25 187.73 314.22 190.08 307.35
  Q 192.95 298.92 202.75 299.25
  Q 209.79 299.48 216.76 299.54
  Z"
/>
<path fill="#9a9899" d="
  M 251.56 325.90
  Q 251.29 321.64 248.78 321.29
  Q 245.63 320.85 242.85 321.31
  A 1.67 1.67 0.0 0 0 241.45 322.90
  Q 241.23 328.65 241.57 334.54
  C 242.01 342.34 232.81 348.79 225.55 344.62
  Q 219.37 341.07 219.52 333.99
  Q 219.69 325.57 219.21 321.95
  Q 220.66 322.37 220.70 324.00
  Q 220.82 328.68 220.80 333.36
  C 220.79 336.83 221.77 340.29 224.27 342.16
  C 227.76 344.76 233.67 344.13 237.04 341.43
  C 239.22 339.69 239.17 337.77 239.13 335.11
  Q 239.04 328.40 239.29 322.16
  A 3.21 3.20 1.8 0 1 242.57 319.09
  L 250.32 319.28
  A 2.14 2.14 0.0 0 1 252.29 320.73
  Q 253.12 323.21 251.56 325.90
  Z"
/>
<rect fill="#9a9899" x="-0.41" y="-13.99" transform="translate(123.40,352.55) rotate(22.6)" width="0.82" height="27.98" rx="0.27"/>
</svg>
